<svg id="FIZ-Produktlogo" xmlns="http://www.w3.org/2000/svg" viewBox="0 0 286 60"><defs><style>.cls-1{fill:#787878;}.cls-2{fill:#a51e55;}.cls-3{fill:none;stroke:#1d1d1b;stroke-width:0.25px;}.cls-4{fill:#a62055;}.cls-5{fill:#414141;}</style></defs><g id="farbig"><rect class="cls-1" x="161.08" y="3.02" width="11.81" height="11.75"/><rect class="cls-2" x="172.87" y="14.79" width="16.5" height="16.42"/><rect class="cls-3" x="161.08" y="3.11" width="28.28" height="28.15"/><line class="cls-3" x1="172.87" y1="3.15" x2="172.87" y2="31.36"/><line class="cls-3" x1="161.13" y1="14.79" x2="189.41" y2="14.79"/><path class="cls-4" d="M7,50.74H4.63v8.11h-2V50.74H.26V49.11h7Z"/><path class="cls-4" d="M14,58.85V54.5H11.2v4.35H9.25V49.11H11.2v3.78H14V49.11h2v9.74Z"/><path class="cls-4" d="M19.22,58.85V49.11h5.54l-.25,1.6H21.18V53H24v1.6H21.21v2.61h3.68v1.68Z"/><path class="cls-4" d="M36.76,50.7h-3.1v2.22h2.48v1.6H33.66v4.33h-2V49.11H37Z"/><path class="cls-4" d="M39.1,58.85V49.11h2v9.74Z"/><path class="cls-4" d="M49.12,58.85c-.38-.65-.53-.91-.91-1.6C47.25,55.5,47,55,46.6,54.87a.94.94,0,0,0-.31-.08v4.06H44.37V49.11H48A2.7,2.7,0,0,1,50.86,52a2.51,2.51,0,0,1-2.17,2.69,1.72,1.72,0,0,1,.4.41c.56.7,2.34,3.78,2.34,3.78Zm-1-8A3.65,3.65,0,0,0,47,50.68h-.7v2.63H47c.84,0,1.21-.08,1.47-.32a1.31,1.31,0,0,0,.38-1A1.14,1.14,0,0,0,48.1,50.82Z"/><path class="cls-4" d="M56.58,59.06a6.88,6.88,0,0,1-3.32-.89L54,56.65a5.6,5.6,0,0,0,2.68.78c1.12,0,1.71-.46,1.71-1.33,0-.63-.41-1-1.28-1.26L56,54.55a3,3,0,0,1-1.92-1.24,2.83,2.83,0,0,1-.4-1.48c0-1.78,1.43-3,3.49-3a5.7,5.7,0,0,1,3.25,1l-.93,1.4a4.2,4.2,0,0,0-2.27-.74c-.8,0-1.36.46-1.36,1.12,0,.5.27.75,1.08,1l1.18.32a2.93,2.93,0,0,1,2.46,2.9C60.6,57.75,59,59.06,56.58,59.06Z"/><path class="cls-4" d="M69,50.74H66.66v8.11h-2V50.74H62.29V49.11h7Z"/><path class="cls-4" d="M80.45,58.85c-.37-.65-.53-.91-.91-1.6-1-1.75-1.26-2.23-1.61-2.38a.94.94,0,0,0-.31-.08v4.06H75.71V49.11h3.62A2.7,2.7,0,0,1,82.19,52,2.51,2.51,0,0,1,80,54.66a1.77,1.77,0,0,1,.41.41c.56.7,2.34,3.78,2.34,3.78Zm-1-8a3.65,3.65,0,0,0-1.11-.14h-.7v2.63h.66c.84,0,1.21-.08,1.47-.32a1.31,1.31,0,0,0,.38-1A1.14,1.14,0,0,0,79.43,50.82Z"/><path class="cls-4" d="M85.15,58.85V49.11H90.7l-.25,1.6H87.12V53H89.9v1.6H87.14v2.61h3.69v1.68Z"/><path class="cls-4" d="M96,59.06a6.85,6.85,0,0,1-3.32-.89l.73-1.52a5.57,5.57,0,0,0,2.67.78c1.12,0,1.71-.46,1.71-1.33,0-.63-.4-1-1.27-1.26l-1.08-.29a3,3,0,0,1-1.92-1.24,2.74,2.74,0,0,1-.41-1.48c0-1.78,1.43-3,3.49-3a5.68,5.68,0,0,1,3.25,1l-.92,1.4a4.23,4.23,0,0,0-2.27-.74c-.8,0-1.36.46-1.36,1.12,0,.5.26.75,1.08,1l1.17.32a2.93,2.93,0,0,1,2.47,2.9C100,57.75,98.4,59.06,96,59.06Z"/><path class="cls-4" d="M108.48,58.55a3.73,3.73,0,0,1-2,.45,3.56,3.56,0,0,1-3.16-1.37A5.79,5.79,0,0,1,102.25,54c0-2.1.8-3.78,2.2-4.55a4.29,4.29,0,0,1,2-.47c2.6,0,4.19,1.89,4.19,4.94C110.65,56.13,109.9,57.78,108.48,58.55Zm-.33-6.82a1.77,1.77,0,0,0-1.71-1.23,1.7,1.7,0,0,0-1.52.85,5.76,5.76,0,0,0-.49,2.66c0,1.69.28,2.74.87,3.16a2,2,0,0,0,1.16.33c1.36,0,1.94-1,1.94-3.51A8.14,8.14,0,0,0,108.15,51.73Z"/><path class="cls-4" d="M120.28,57.19C120,58,119.08,59,117,59a3.48,3.48,0,0,1-3.12-1.3,2.87,2.87,0,0,1-.43-1.84V49.11h2v6.4a2.53,2.53,0,0,0,.17,1.17,1.38,1.38,0,0,0,1.33.67,1.31,1.31,0,0,0,1.48-1.14,5.7,5.7,0,0,0,0-.86V49.11h2v6.56A3.88,3.88,0,0,1,120.28,57.19Z"/><path class="cls-4" d="M128.39,58.85c-.38-.65-.53-.91-.91-1.6-1-1.75-1.26-2.23-1.61-2.38a.94.94,0,0,0-.31-.08v4.06h-1.92V49.11h3.63A2.7,2.7,0,0,1,130.13,52,2.51,2.51,0,0,1,128,54.66a1.77,1.77,0,0,1,.41.41c.56.7,2.34,3.78,2.34,3.78Zm-1-8a3.7,3.7,0,0,0-1.11-.14h-.7v2.63h.66c.84,0,1.2-.08,1.47-.32a1.31,1.31,0,0,0,.38-1A1.14,1.14,0,0,0,127.37,50.82Z"/><path class="cls-4" d="M137,59a4,4,0,0,1-3.18-1.35,5.05,5.05,0,0,1-1.18-3.49,6.19,6.19,0,0,1,.66-3,4.17,4.17,0,0,1,3.72-2.26,4,4,0,0,1,2.47.77L138.64,51a2.59,2.59,0,0,0-1.56-.54,2,2,0,0,0-1.65.84,4.44,4.44,0,0,0-.55,2.5,5.47,5.47,0,0,0,.41,2.61,2,2,0,0,0,1.88,1.09,2.51,2.51,0,0,0,1.66-.63l.9,1.24A4,4,0,0,1,137,59Z"/><path class="cls-4" d="M142.12,58.85V49.11h5.55l-.25,1.6h-3.34V53h2.79v1.6h-2.76v2.61h3.68v1.68Z"/><path class="cls-4" d="M159.66,50.7h-3.09v2.22h2.48v1.6h-2.48v4.33h-2V49.11h5.28Z"/><path class="cls-4" d="M167.81,58.55a3.69,3.69,0,0,1-1.94.45,3.58,3.58,0,0,1-3.17-1.37A5.79,5.79,0,0,1,161.58,54c0-2.1.8-3.78,2.2-4.55a4.3,4.3,0,0,1,2-.47c2.59,0,4.18,1.89,4.18,4.94C170,56.13,169.23,57.78,167.81,58.55Zm-.33-6.82a1.76,1.76,0,0,0-1.71-1.23,1.68,1.68,0,0,0-1.51.85,5.63,5.63,0,0,0-.49,2.66c0,1.69.28,2.74.86,3.16a2,2,0,0,0,1.17.33c1.36,0,1.93-1,1.93-3.51A7.77,7.77,0,0,0,167.48,51.73Z"/><path class="cls-4" d="M177.54,58.85c-.38-.65-.53-.91-.91-1.6-1-1.75-1.26-2.23-1.61-2.38a.94.94,0,0,0-.31-.08v4.06h-1.92V49.11h3.63A2.7,2.7,0,0,1,179.28,52a2.51,2.51,0,0,1-2.17,2.69,1.72,1.72,0,0,1,.4.41c.56.7,2.34,3.78,2.34,3.78Zm-1-8a3.65,3.65,0,0,0-1.11-.14h-.7v2.63h.66c.84,0,1.21-.08,1.47-.32a1.31,1.31,0,0,0,.38-1A1.14,1.14,0,0,0,176.52,50.82Z"/><path class="cls-4" d="M194.53,58.85l-.37-5.2c0-.62-.07-1.11-.07-1.62a14.61,14.61,0,0,1-.36,1.49l-1.54,5.33h-1.67l-1.39-5.12c-.12-.47-.29-1.16-.39-1.72,0,.58,0,1.15-.07,1.75l-.34,5.09h-1.94l.91-9.74h2.51L191.08,54c.18.7.25,1,.34,1.54a14,14,0,0,1,.35-1.59l1.31-4.83h2.5l.86,9.74Z"/><path class="cls-4" d="M204.58,58.85l-.69-2.31H201l-.68,2.31h-2l3.2-9.77h2.11l3.07,9.77Zm-1.7-5.9-.39-1.72s-.28,1.15-.46,1.87-.31,1.17-.52,1.81h1.9S203.09,53.89,202.88,53Z"/><path class="cls-4" d="M213.83,50.74h-2.32v8.11h-2V50.74h-2.39V49.11h7Z"/><path class="cls-4" d="M220.87,58.85V54.5h-2.8v4.35h-1.95V49.11h1.95v3.78h2.8V49.11h2v9.74Z"/><path class="cls-4" d="M226.09,58.85V49.11h5.55l-.25,1.6h-3.34V53h2.79v1.6h-2.76v2.61h3.68v1.68Z"/><path class="cls-4" d="M242.15,58.85l-.36-5.2c0-.62-.07-1.11-.07-1.62a14.72,14.72,0,0,1-.37,1.49l-1.54,5.33h-1.66l-1.39-5.12c-.13-.47-.29-1.16-.39-1.72,0,.58,0,1.15-.07,1.75L236,58.85h-2l.92-9.74h2.5L238.71,54a14.14,14.14,0,0,1,.33,1.54c.09-.51.2-1,.35-1.59l1.32-4.83h2.49l.87,9.74Z"/><path class="cls-4" d="M252.2,58.85l-.68-2.31h-2.86L248,58.85h-2l3.19-9.77h2.12l3.06,9.77ZM250.51,53l-.39-1.72s-.28,1.15-.47,1.87-.3,1.17-.51,1.81H251S250.72,53.89,250.51,53Z"/><path class="cls-4" d="M261.46,50.74h-2.33v8.11h-2V50.74h-2.38V49.11h7Z"/><path class="cls-4" d="M263.75,58.85V49.11h2v9.74Z"/><path class="cls-4" d="M273,59a4,4,0,0,1-3.18-1.35,5.1,5.1,0,0,1-1.17-3.49,6.19,6.19,0,0,1,.66-3A4.16,4.16,0,0,1,273,48.9a4,4,0,0,1,2.47.77L274.57,51a2.58,2.58,0,0,0-1.55-.54,2,2,0,0,0-1.65.84,4.44,4.44,0,0,0-.55,2.5,5.35,5.35,0,0,0,.41,2.61,2,2,0,0,0,1.87,1.09,2.52,2.52,0,0,0,1.67-.63l.9,1.24A4,4,0,0,1,273,59Z"/><path class="cls-4" d="M280.82,59.06a6.85,6.85,0,0,1-3.32-.89l.73-1.52a5.57,5.57,0,0,0,2.67.78c1.12,0,1.71-.46,1.71-1.33,0-.63-.41-1-1.27-1.26l-1.08-.29a3,3,0,0,1-1.92-1.24,2.74,2.74,0,0,1-.41-1.48c0-1.78,1.43-3,3.49-3a5.7,5.7,0,0,1,3.25,1l-.93,1.4a4.2,4.2,0,0,0-2.26-.74c-.8,0-1.36.46-1.36,1.12,0,.5.26.75,1.07,1l1.18.32a2.93,2.93,0,0,1,2.47,2.9C284.84,57.75,283.24,59.06,280.82,59.06Z"/><path class="cls-5" d="M16,31.36H.67V28l9.82-13.65h-9V10.5H17v3.75L7.76,27.57h9.57Z"/><path class="cls-5" d="M38.19,30.14a6.89,6.89,0,0,1-4.56,1.63A5.8,5.8,0,0,1,29,29.86a3.43,3.43,0,0,1-.57,1.5H23.52c.41-.93.53-1.55.53-4.44V7.61a22.55,22.55,0,0,0-.36-5.13l5.58-1.31a28.93,28.93,0,0,1,.2,3.71V9.81a11.21,11.21,0,0,1-.12,1.83A5.73,5.73,0,0,1,33.79,10c5.09,0,8.27,4.08,8.27,10.6C42.06,24.8,40.76,28.1,38.19,30.14Zm-2.57-13a3,3,0,0,0-3-2.64,4.18,4.18,0,0,0-3.1,1.67v9.61a4.33,4.33,0,0,0,3.06,1.35,2.56,2.56,0,0,0,2.65-1.63c.49-1.14.61-2.24.61-4.81A14.6,14.6,0,0,0,35.62,17.14Z"/><path class="cls-5" d="M71.44,31.36,70.38,16.25c-.12-1.79-.21-3.22-.21-4.73-.32,1.63-.57,2.65-1.06,4.36L64.63,31.36H59.78l-4-14.87c-.37-1.38-.85-3.38-1.14-5,0,1.67-.08,3.34-.2,5.09l-1,14.79H47.77L50.41,3.05h7.3l3.7,14.18a42.45,42.45,0,0,1,1,4.48c.25-1.47.57-2.94,1-4.61l3.83-14h7.25L77,31.36Z"/><path class="cls-5" d="M100,31.36l-2-6.72H89.73l-2,6.72h-6L91.07,3h6.16l8.92,28.39ZM95.11,14.21c-.29-1.3-1.14-5-1.14-5s-.82,3.34-1.35,5.46-.89,3.38-1.51,5.26h5.55S95.72,16.94,95.11,14.21Z"/><path class="cls-5" d="M126.31,7.77h-6.76V31.36h-5.79V7.77h-6.92V3.05h20.41Z"/><path class="cls-5" d="M146.15,31.36V18.73H138V31.36h-5.67V3.05H138v11h8.14v-11h5.79V31.36Z"/><path class="cls-5" d="M219.94,17.84a19.88,19.88,0,0,1-1,6.72,11.71,11.71,0,0,1-3.08,4.64,9.82,9.82,0,0,1-3.21,2.06,10.89,10.89,0,0,1-3.86.63,10.32,10.32,0,0,1-4.52-.95,10.67,10.67,0,0,1-3.39-2.59q-3.33-3.84-3.33-11.08a21.54,21.54,0,0,1,.77-6,13.69,13.69,0,0,1,2.19-4.5A9.65,9.65,0,0,1,204,3.92a10.62,10.62,0,0,1,4.63-1,11.28,11.28,0,0,1,3.23.43,10.29,10.29,0,0,1,2.46,1.1,9.73,9.73,0,0,1,1.82,1.49,10.74,10.74,0,0,1,1.26,1.55A14.12,14.12,0,0,1,219.33,12,25.45,25.45,0,0,1,219.94,17.84Zm-3.67.42a35.23,35.23,0,0,0-.33-5.24,12.8,12.8,0,0,0-1-3.62,7.14,7.14,0,0,0-2.27-2.69,6.5,6.5,0,0,0-4-1.14,7.38,7.38,0,0,0-3.57.88,5.76,5.76,0,0,0-2.43,2.38,11.57,11.57,0,0,0-1.09,3.23,24.72,24.72,0,0,0-.34,4.45,30.41,30.41,0,0,0,.49,5.74,12.94,12.94,0,0,0,1.3,4,4.87,4.87,0,0,0,1.07,1.25,7.18,7.18,0,0,0,1.45.93,8.48,8.48,0,0,0,1.69.61,7.25,7.25,0,0,0,1.76.22,6.9,6.9,0,0,0,3-.61,6.16,6.16,0,0,0,2.23-1.79,7.69,7.69,0,0,0,.92-1.42,8,8,0,0,0,.63-1.79,16.93,16.93,0,0,0,.37-2.34Q216.27,20,216.27,18.26Z"/><path class="cls-5" d="M242.87,21.18a17.94,17.94,0,0,1-.38,4,10.42,10.42,0,0,1-1.25,3,8.06,8.06,0,0,1-2.69,2.75,6.84,6.84,0,0,1-3.58.95,7.69,7.69,0,0,1-3-.63,7.53,7.53,0,0,1-2.55-1.73v9.7l-3.26.61V15.47a20.26,20.26,0,0,0-.45-4.36l3.34-.57a21,21,0,0,1,.2,3.1,7.66,7.66,0,0,1,6-3,7.14,7.14,0,0,1,3,.65,6.45,6.45,0,0,1,2.42,1.87,9.41,9.41,0,0,1,1.69,3.34A16.94,16.94,0,0,1,242.87,21.18Zm-3.46.4a21.75,21.75,0,0,0-.24-3.36,9,9,0,0,0-.69-2.46A3.56,3.56,0,0,0,237,14.11a4.4,4.4,0,0,0-2.23-.59,6.84,6.84,0,0,0-5.37,2.85V26.6a6.57,6.57,0,0,0,4.93,2.64,4.86,4.86,0,0,0,2.56-.69,4.11,4.11,0,0,0,1.68-1.83,8.85,8.85,0,0,0,.65-2.2A18.93,18.93,0,0,0,239.41,21.58Z"/><path class="cls-5" d="M251.35,21.75v.49a14.46,14.46,0,0,0,.2,2.52,5.2,5.2,0,0,0,.74,1.92,5,5,0,0,0,2.19,1.89,6.87,6.87,0,0,0,2.88.59,7.11,7.11,0,0,0,5-1.91l1.22,2a9.47,9.47,0,0,1-3.12,1.87,10.9,10.9,0,0,1-3.74.65,8.18,8.18,0,0,1-6.64-2.87q-2.38-2.88-2.39-7.93a14.25,14.25,0,0,1,.57-4.33,9.72,9.72,0,0,1,1.89-3.32,7.68,7.68,0,0,1,6.1-2.82,7.39,7.39,0,0,1,5.53,2.2,9.43,9.43,0,0,1,1.1,1.43,6.67,6.67,0,0,1,.72,1.71,14.14,14.14,0,0,1,.39,2.28c.08.87.12,1.92.12,3.14v.45Zm9-5.18a5.71,5.71,0,0,0-.67-1.79,3.72,3.72,0,0,0-1.51-1.3A4.7,4.7,0,0,0,256,13q-4.44,0-4.68,6.31h9.29A15.65,15.65,0,0,0,260.37,16.57Z"/><path class="cls-5" d="M281.37,31.28V17.68c0-.54,0-1,0-1.34a4.8,4.8,0,0,0-.12-.88,2.32,2.32,0,0,0-.22-.63,4.1,4.1,0,0,0-.35-.5,2.8,2.8,0,0,0-2.24-.85,4.86,4.86,0,0,0-1.37.22,8.59,8.59,0,0,0-1.5.61,10.54,10.54,0,0,0-1.49.9,8.67,8.67,0,0,0-1.26,1.09v15h-3.06V15.7a12.2,12.2,0,0,0-.77-4.26l3.09-.86a2.43,2.43,0,0,1,.21.45,8.68,8.68,0,0,1,.34,1.16,6.31,6.31,0,0,1,.19,1.57q3.14-3.13,6.39-3.14a5.75,5.75,0,0,1,3,.82,4.75,4.75,0,0,1,1.95,2.15,5.62,5.62,0,0,1,.49,2.35V31.28Z"/></g></svg>